<svg width="127" height="127" viewBox="0 0 127 127" fill="none" xmlns="http://www.w3.org/2000/svg">
<g clip-path="url(#clip0_21_1032)">
<path d="M127 64.8167C126.82 65.0561 126.58 65.2955 126.401 65.5349C123.823 69.4251 121.246 73.2555 118.789 77.1457C118.369 77.804 118.13 78.6419 118.19 79.4199C118.369 83.9685 118.609 88.517 118.909 93.0655C119.029 94.9209 118.369 95.9981 116.751 96.7762C112.736 98.7512 108.78 100.786 104.764 102.761C103.865 103.18 103.266 103.838 102.847 104.736C100.869 108.746 98.771 112.756 96.7932 116.826C96.014 118.382 94.9352 118.98 93.2571 118.92C88.5223 118.621 83.7276 118.322 78.9928 118.083C78.4534 118.083 77.8541 118.322 77.4345 118.621C73.5388 121.135 69.6431 123.648 65.8073 126.282C64.309 127.299 62.9904 127.299 61.4921 126.282C57.7762 123.768 54.0004 121.374 50.3444 118.861C49.4454 118.262 48.6662 118.023 47.5874 118.142C42.9725 118.442 38.4175 118.681 33.8026 118.92C32.2443 119.04 31.2255 118.322 30.5662 116.945C28.4685 112.756 26.3708 108.626 24.2132 104.437C23.9135 103.838 23.3741 103.3 22.7748 103.001C18.6393 100.846 14.5638 98.7512 10.3685 96.7163C8.81017 95.9383 8.1509 94.861 8.27077 93.1852C8.57044 88.517 8.81017 83.8488 9.04991 79.1805C9.04991 78.5222 8.87011 77.804 8.5105 77.2654C5.99328 73.3752 3.47605 69.4849 0.898895 65.6546C-0.0600482 64.2182 -0.0600482 62.9614 0.898895 61.525C3.29625 57.6947 5.81348 53.8643 8.3307 50.034C8.75024 49.4355 8.93004 48.5976 8.93004 47.8794C8.75024 43.3907 8.5105 38.8422 8.1509 34.3535C7.9711 32.3186 8.75024 31.1216 10.5483 30.2239C14.6238 28.2489 18.6393 26.214 22.595 24.1193C23.1943 23.82 23.7337 23.2814 24.0334 22.6829C26.191 18.5533 28.2887 14.4237 30.3265 10.2941C31.1056 8.73802 32.2443 8.07968 33.9824 8.19938C38.7172 8.49862 43.3921 8.79787 48.1268 8.97741C48.6662 8.97741 49.2656 8.79787 49.6851 8.49862C52.9815 6.4039 56.2179 4.24933 59.4543 2.09476C60.5332 1.37657 61.6719 0.658376 62.8106 -0.0598145C63.2901 -0.0598145 63.8295 -0.0598145 64.309 -0.0598145C68.6242 2.81295 72.9994 5.68571 77.3746 8.49862C77.7941 8.73802 78.2736 8.97741 78.7531 8.97741C83.4878 8.73802 88.2826 8.49862 93.0173 8.19938C95.115 8.07968 95.8342 8.43877 96.7932 10.2941C98.8909 14.3638 100.929 18.4934 103.026 22.5632C103.386 23.2215 103.985 23.82 104.645 24.1193C108.78 26.2738 112.975 28.3686 117.171 30.4633C118.489 31.1216 119.149 32.0792 119.029 33.5156C118.729 38.2437 118.489 42.9119 118.25 47.64C118.19 48.3582 118.429 49.1961 118.789 49.7946C121.486 54.0439 124.303 58.2333 127.06 62.4826C127 63.3205 127 64.0387 127 64.8167ZM84.5067 113.055C86.6643 113.175 88.822 113.235 90.9796 113.474C92.0584 113.594 92.6577 113.295 93.1971 112.217C94.9952 108.447 96.913 104.676 98.8909 100.966C99.3703 100.128 100.149 99.2899 100.989 98.8709C104.764 96.836 108.66 94.9209 112.496 93.0655C113.335 92.6466 113.575 92.1678 113.515 91.2701C113.215 86.9609 113.035 82.6518 112.736 78.4025C112.676 77.2055 112.915 76.2479 113.575 75.2903C115.972 71.6994 118.309 68.1084 120.707 64.5175C121.126 63.8591 121.186 63.4402 120.707 62.7818C118.25 59.1909 115.852 55.5999 113.515 51.8893C112.975 51.0514 112.676 49.9741 112.676 49.0165C112.796 44.6475 113.095 40.3384 113.395 36.0293C113.455 35.1315 113.215 34.6527 112.376 34.2338C108.6 32.3784 104.824 30.4633 101.048 28.5481C99.9098 28.0095 99.1306 27.2314 98.5313 26.0943C96.6733 22.2639 94.6955 18.4934 92.7776 14.6631C92.418 13.885 91.9985 13.6457 91.1594 13.7055C86.8442 14.0047 82.469 14.1843 78.1537 14.4835C76.955 14.5434 75.9961 14.2441 75.0372 13.5858C71.5011 11.1918 67.905 8.91757 64.3689 6.5236C63.6497 6.0448 63.1702 5.98495 62.3911 6.46375C58.855 8.85772 55.3189 11.2517 51.7229 13.4661C50.8239 14.0047 49.6252 14.3638 48.6063 14.3638C44.4109 14.2441 40.2755 14.0047 36.0801 13.7055C34.8814 13.6457 34.2821 13.885 33.7427 15.0222C32.0046 18.673 30.1467 22.2041 28.3486 25.795C27.6894 27.1117 26.8503 28.0095 25.5317 28.608C21.8758 30.4034 18.2198 32.3186 14.5638 34.1141C13.6648 34.5929 13.3652 35.1315 13.4251 36.0891C13.7248 40.3384 13.9645 44.5877 14.1443 48.837C14.2042 49.8544 13.8446 50.9915 13.3052 51.8294C11.0277 55.4802 8.63037 59.0712 6.23301 62.6023C5.75354 63.3205 5.69361 63.7993 6.23301 64.5773C8.45057 67.869 10.5483 71.2206 12.8257 74.4524C13.9645 76.0684 14.3241 77.7441 14.1443 79.6593C13.8446 83.5495 13.7248 87.4996 13.4251 91.4496C13.3652 92.2277 13.6049 92.5867 14.3241 92.9458C18.0999 94.8012 21.8758 96.7163 25.6516 98.5717C26.8503 99.1702 27.6894 100.008 28.2887 101.205C30.1467 104.976 32.0645 108.626 33.8626 112.397C34.2821 113.235 34.7016 113.534 35.6606 113.474C39.9159 113.175 44.1712 112.995 48.4265 112.696C49.6851 112.636 50.7639 112.935 51.7828 113.654C55.3189 116.048 58.9149 118.322 62.451 120.716C63.1103 121.135 63.5299 121.135 64.1891 120.716C67.7852 118.262 71.3812 115.868 75.0971 113.534C75.9362 112.995 77.015 112.696 77.9739 112.696C80.3114 112.756 82.409 112.935 84.5067 113.055Z" fill="#FFCA36"/>
<path d="M63.5298 23.9995C85.3458 23.9995 103.146 41.7747 103.146 63.5598C103.146 85.3449 85.3458 103.12 63.5298 103.12C41.7139 103.12 23.8535 85.2851 23.9135 63.5598C23.9135 41.7747 41.7139 23.9995 63.5298 23.9995ZM97.872 63.6197C97.9319 44.827 82.5289 29.3261 63.5897 29.2662C44.7106 29.2064 29.3075 44.5876 29.2476 63.5C29.1877 82.3525 44.5907 97.7936 63.5298 97.7936C82.409 97.9133 97.812 82.532 97.872 63.6197Z" fill="#FFCA36"/>
<path d="M58.6753 69.7243C59.0349 69.425 59.3945 69.066 59.7541 68.7667C65.5677 63.2606 71.3813 57.8143 77.1949 52.368C77.8541 51.7695 78.8131 51.2309 79.6521 51.171C81.63 51.0513 82.8886 53.3256 81.8098 55.0612C81.5101 55.54 81.1505 55.8991 80.7309 56.2582C74.1982 62.4227 67.6654 68.5872 61.1326 74.7516C59.0349 76.7266 57.8362 76.6668 55.8584 74.6319C52.6819 71.3402 49.4454 68.0485 46.2689 64.7568C45.9093 64.3977 45.5497 63.9788 45.2501 63.5C44.6507 62.4825 44.8305 61.2856 45.6097 60.4477C46.4487 59.5499 47.7673 59.3704 48.7862 60.0287C49.2656 60.328 49.6852 60.7469 50.1047 61.1659C53.0415 63.8591 55.9782 66.6121 58.9749 69.3053C58.915 69.425 58.7951 69.5447 58.6753 69.7243Z" fill="#FFCA36"/>
</g>
<defs>
<clipPath id="clip0_21_1032">
<rect width="127" height="127" fill="white"/>
</clipPath>
</defs>
</svg>
