<svg width="136" height="132" viewBox="0 0 136 132" fill="none" xmlns="http://www.w3.org/2000/svg">
<g clip-path="url(#clip0_21_1038)">
<path d="M0 51.3643C0.0798122 51.1251 0.159624 50.8858 0.239437 50.6465C1.277 46.9776 3.75117 44.7444 7.50235 44.1063C11.0141 43.548 13.8873 44.9039 15.9624 47.6955C16.6807 48.6526 17.2394 49.8489 17.7183 50.9656C20.1127 57.1867 22.4272 63.4876 24.7418 69.7088C24.9014 70.1075 25.061 70.5063 25.3005 70.9849C29.1315 69.0707 32.5634 69.8683 35.9155 72.1015C42.2207 76.3287 48.6854 80.3166 55.0704 84.464C60.5775 87.9734 64.8075 92.6791 67.5211 98.5813C67.6807 98.8205 67.7606 99.0598 68 99.5384C68.2394 99.0598 68.3991 98.8205 68.5587 98.5015C71.2723 92.6791 75.4225 88.0532 80.8498 84.5438C87.554 80.2369 94.2582 76.0097 100.962 71.623C104.075 69.5492 107.268 69.2302 110.779 70.9051C110.939 70.5063 111.178 70.1075 111.338 69.629C113.732 63.2483 116.047 56.8677 118.521 50.487C119.878 46.8979 122.272 44.5849 126.183 43.9468C131.93 43.0695 137.277 48.7323 135.92 54.3154C133.127 65.7208 130.413 77.1263 127.38 88.5317C124.746 98.5015 118.84 106.398 110.7 112.619C106.869 115.57 102.878 118.282 98.9671 120.993C98.169 121.552 97.77 122.19 97.8498 123.147C97.9296 124.263 97.9296 125.38 97.8498 126.497C97.77 129.527 95.6948 131.681 92.7418 131.84C92.3427 131.84 91.9437 131.84 91.5446 131.84C75.9812 131.84 60.4178 131.84 44.7746 131.84C40.385 131.84 38.23 129.847 38.4695 125.46C38.6291 122.748 37.831 121.073 35.4366 119.558C31.6056 117.165 27.8545 114.453 24.3427 111.582C15.6432 104.643 10.216 95.6302 7.8216 84.7033C5.42723 74.893 2.79343 64.9233 0.319249 55.0332C0.239437 54.794 0.159624 54.5547 0 54.3154C0 53.3583 0 52.4012 0 51.3643ZM65.3662 126.576C65.3662 122.03 65.3662 117.643 65.3662 113.177C65.3662 109.668 64.8075 106.318 63.6103 103.048C61.5352 97.2254 57.8638 92.5994 52.6761 89.2495C45.7324 84.7033 38.7887 80.3166 31.8451 75.8501C30.0094 74.6538 28.0141 74.9728 26.8967 76.568C25.7793 78.1631 26.1784 80.0773 27.9343 81.4332C29.77 82.9486 31.6854 84.3843 33.6009 85.8997C35.8357 87.6544 38.1502 89.4091 40.385 91.2435C41.5822 92.2804 41.7418 93.8755 40.8638 94.9921C39.9061 96.1088 38.4695 96.2683 37.1925 95.3909C36.8732 95.1517 36.6338 94.9921 36.3146 94.7529C32.3239 91.5625 28.3333 88.452 24.3427 85.2616C21.4695 83.0284 20.6714 80.0773 21.23 76.6477C21.3099 76.0097 21.3099 75.2918 21.0704 74.7335C18.3568 67.3958 15.6432 60.058 12.8498 52.8C12.6103 52.2417 12.4507 51.7631 12.1315 51.2846C11.0141 49.5299 9.33803 48.8918 7.58216 49.6097C5.82629 50.3275 5.10798 51.9227 5.58685 53.9964C8.14085 64.2852 10.7746 74.574 13.2488 84.8628C15.723 95.2314 21.3897 103.287 30.0094 109.428C33.9202 112.22 37.7512 115.011 41.662 117.723C43.0986 118.68 43.7371 119.877 43.6573 121.631C43.5775 123.227 43.6573 124.901 43.6573 126.576C50.8404 126.576 57.9437 126.576 65.3662 126.576ZM92.4225 126.576C92.4225 124.662 92.5023 122.987 92.4225 121.233C92.3427 119.717 92.9812 118.76 94.1784 117.883C98.5681 114.772 103.038 111.662 107.347 108.471C114.451 103.207 119.638 96.4278 122.033 87.8936C125.146 76.4882 127.859 65.003 130.653 53.5976C131.052 52.0024 130.333 50.5668 128.897 49.7692C127.46 48.9716 125.864 49.1311 124.746 50.3275C124.108 51.0453 123.629 51.9227 123.31 52.8C120.516 60.058 117.803 67.316 115.169 74.6538C114.93 75.2918 114.93 76.0097 115.009 76.6477C115.488 80.0773 114.69 83.0284 111.817 85.2616C110.38 86.3782 108.944 87.4949 107.587 88.6115C104.793 90.8447 102 93.0779 99.1268 95.2314C98.0094 96.1088 96.8122 96.1088 95.8545 95.3112C94.8967 94.5136 94.5775 93.4767 94.9765 92.3601C95.216 91.722 95.7746 91.1637 96.2535 90.7649C100.324 87.4949 104.474 84.3045 108.545 81.0344C109.822 79.9976 110.221 78.3227 109.423 76.887C108.704 75.4514 107.108 74.7335 105.512 75.1323C105.033 75.2918 104.554 75.5311 104.075 75.8501C97.2113 80.2369 90.2676 84.6236 83.4038 89.09C76.1408 93.8755 71.831 100.655 70.953 109.269C70.3944 114.852 70.7136 120.515 70.7136 126.098C70.7136 126.178 70.7934 126.257 70.8732 126.417C77.9765 126.576 85.0798 126.576 92.4225 126.576Z" fill="#FFCA36"/>
<path d="M88.751 57.2665C88.751 61.0151 88.751 64.5245 88.751 68.1136C88.751 72.0218 86.6759 74.0157 82.7651 74.0157C81.8872 74.0157 81.0093 74.0157 80.1313 74.0157C78.6149 73.936 77.5773 72.8991 77.5773 71.5432C77.4975 70.0278 78.4553 68.9112 80.0515 68.7517C81.1689 68.6719 82.2064 68.7517 83.4036 68.7517C83.4036 68.2731 83.4834 67.9541 83.4834 67.6351C83.4834 63.3281 83.4834 59.0212 83.4834 54.794C83.4834 50.2477 80.2111 46.8979 75.6618 46.8181C70.5539 46.7384 65.4459 46.7384 60.4177 46.8181C55.8684 46.8979 52.6759 50.2477 52.6759 54.7142C52.6759 59.3402 52.6759 63.9662 52.6759 68.7517C53.7135 68.7517 54.6712 68.7517 55.629 68.7517C57.4646 68.8314 58.582 69.8683 58.582 71.4634C58.582 73.0586 57.4646 74.0955 55.5492 74.0955C54.5116 74.0955 53.474 74.0955 52.5163 74.0955C49.5632 74.0157 47.3285 71.8622 47.3285 68.8314C47.2487 65.4816 47.3285 62.2115 47.3285 58.8616C47.3285 58.3831 47.3285 57.9045 47.3285 57.2665C46.69 57.2665 46.2111 57.2665 45.7323 57.2665C41.2628 57.2665 36.7933 57.2665 32.3238 57.2665C28.5726 57.2665 26.3379 55.0332 26.3379 51.3644C26.3379 46.8979 26.3379 42.4314 26.3379 37.965C26.3379 32.0628 29.7698 27.3571 35.3567 25.3631C35.5163 25.2834 35.6759 25.2036 35.9154 25.1239C30.967 18.3444 30.4881 11.565 35.9154 5.10454C39.906 0.319039 46.4506 -1.19637 52.197 0.957106C55.629 2.23324 58.2628 4.54623 60.0985 7.73656C61.5351 10.2888 61.7745 11.565 61.8543 18.1051C65.9247 16.4302 69.9952 16.4302 74.2252 18.1849C73.6665 14.197 74.1454 10.4483 76.2205 7.0985C78.3754 3.74865 81.3285 1.51541 85.2393 0.558314C91.2252 -1.03685 97.6102 1.3559 101.202 6.54019C104.394 11.1662 105.432 18.5039 100.084 25.0441C100.563 25.2834 101.042 25.4429 101.521 25.6822C106.629 27.9952 109.422 31.9831 109.662 37.5662C109.821 42.2719 109.742 46.9776 109.662 51.6036C109.662 54.9535 107.347 57.2665 103.995 57.2665C99.4459 57.2665 94.8966 57.2665 90.3473 57.2665C89.8684 57.2665 89.3895 57.2665 88.751 57.2665ZM79.0938 41.7934C84.2017 43.4683 87.3144 46.8181 88.5116 51.8429C93.859 51.8429 99.0468 51.8429 104.314 51.8429C104.314 46.8181 104.474 41.9529 104.235 37.0079C104.075 33.1795 100.882 30.1486 97.0515 29.9891C92.4224 29.8296 87.7933 29.9891 83.0844 29.9891C83.0046 29.9891 82.9247 30.0689 82.8449 30.2284C83.244 34.4556 82.0468 38.3638 79.0938 41.7934ZM53.075 29.9891C52.5961 29.9891 52.197 29.9094 51.798 29.9094C47.8074 29.9094 43.7369 29.9094 39.7463 29.9094C34.8778 29.9094 31.6055 33.2592 31.6055 38.1245C31.6055 42.2719 31.6055 46.4193 31.6055 50.5668C31.6055 50.9656 31.6055 51.4441 31.6055 51.8429C37.0327 51.8429 42.2205 51.8429 47.4881 51.8429C48.7651 46.7384 51.8778 43.4683 56.906 41.7934C53.9529 38.3638 52.7557 34.4556 53.075 29.9891ZM37.4318 14.9946C37.4318 20.3384 41.6618 24.6453 47.0093 24.6453C52.3567 24.6453 56.6665 20.4181 56.6665 15.0743C56.7463 9.73052 52.3567 5.34381 47.0093 5.34381C41.7416 5.34381 37.4318 9.65076 37.4318 14.9946ZM98.5679 15.0743C98.5679 9.65076 94.2581 5.34381 88.9107 5.34381C83.5632 5.34381 79.3332 9.65076 79.3332 14.9946C79.3332 20.3384 83.6431 24.6453 88.9107 24.6453C94.2581 24.6453 98.5679 20.3384 98.5679 15.0743ZM67.9999 22.1728C62.6524 22.1728 58.3426 26.4 58.3426 31.7438C58.3426 37.0876 62.4928 41.3946 67.8402 41.4743C73.2675 41.5541 77.5773 37.2471 77.5773 31.9033C77.6571 26.4 73.3473 22.1728 67.9999 22.1728Z" fill="#FFCA36"/>
<path d="M68.0002 74.0156C66.4838 74.0156 65.2866 72.899 65.2866 71.3836C65.2866 69.948 66.4838 68.7516 67.9204 68.7516C69.357 68.7516 70.634 69.948 70.634 71.4634C70.634 72.8193 69.5167 73.9359 68.0002 74.0156Z" fill="#FFCA36"/>
</g>
<defs>
<clipPath id="clip0_21_1038">
<rect width="136" height="132" fill="white"/>
</clipPath>
</defs>
</svg>
