<svg width="122" height="122" viewBox="0 0 122 122" fill="none" xmlns="http://www.w3.org/2000/svg">
<g clip-path="url(#clip0_21_1044)">
<path d="M122 41.2266C121.084 42.6008 118.565 43.2879 117.038 42.4481C116.503 42.1427 115.969 41.3029 115.893 40.6921C115.893 40.0814 116.427 39.2416 116.961 38.9362C118.412 38.02 120.931 38.7072 121.924 40.0814C122 40.3868 122 40.8448 122 41.2266Z" fill="#FFCA36"/>
<path d="M4.96243 116.656C10.6883 114.518 16.1852 112.38 21.6057 110.319C19.9261 108.258 18.1702 106.425 16.6433 104.288C12.9787 99.1727 11.2991 93.3704 10.9174 87.1101C10.6883 83.9799 10.383 80.8498 10.1539 77.7196C10.0776 76.1163 10.7647 75.2765 11.9862 75.2002C13.2841 75.1238 14.0475 75.9636 14.2002 77.5669C14.6583 82.3767 14.8873 87.2628 15.7271 91.9962C16.8723 98.6382 20.5369 103.982 25.7284 108.258C25.9574 108.41 26.4155 108.487 26.6445 108.334C34.2791 105.509 41.8373 102.608 49.6245 99.6307C49.2428 99.4017 49.0137 99.249 48.7847 99.0963C30.6908 89.8585 19.5444 75.3529 15.2691 55.5031C15.1164 54.7396 14.9637 54.0525 14.8873 53.2891C14.811 52.0675 15.4981 51.1514 16.6433 50.9987C17.7121 50.846 18.6283 51.6095 18.9336 52.831C19.3917 55.045 19.7734 57.259 20.3842 59.473C25.7284 77.3379 37.1039 89.8585 54.2816 97.1113C54.7396 97.3404 55.4268 97.4167 55.8848 97.264C60.3129 95.6608 64.7409 93.9048 69.0926 92.2252C69.1689 92.1489 69.3216 92.0725 69.4743 91.9198C64.9699 90.4693 61 88.1789 57.1827 85.5832C43.2878 76.3454 32.0651 64.4355 23.9724 49.5481C22.2165 46.3416 20.995 42.9061 20.5369 39.2415C19.6971 33.0575 23.5144 28.5531 29.5457 28.8585C29.9274 28.8585 30.2328 28.9349 30.6145 29.0112C31.9124 29.2402 32.5995 30.1564 32.4468 31.3779C32.2941 32.5231 31.3779 33.1339 30.0801 33.0575C29.393 33.0575 28.7059 32.9812 28.0951 33.1339C25.8047 33.5919 24.6595 34.8898 24.5832 37.2565C24.5069 39.7759 25.194 42.219 26.1101 44.5093C28.6295 50.846 32.4468 56.4192 36.7985 61.6107C45.0438 71.612 54.4343 80.1627 66.0388 86.1939C68.9399 87.7208 71.9937 88.9424 75.3529 89.2478C76.1164 89.3241 76.8798 89.2478 77.5669 89.1714C79.4756 88.9424 80.5444 87.7972 80.7734 85.8886C81.0788 83.5218 80.4681 81.3078 79.781 79.0938C79.6283 78.5594 79.3992 78.025 79.3229 77.4906C79.1702 76.4217 79.6283 75.7346 80.6208 75.3529C81.5369 74.9712 82.6821 75.3529 83.0638 76.269C84.5144 79.8573 85.5832 83.5982 84.5907 87.4918C83.9799 90.0876 82.3003 91.8435 79.8573 92.7596C72.1464 95.6608 64.5119 98.4856 56.801 101.387C39.3179 107.952 21.9111 114.594 4.42801 121.236C3.89359 121.466 3.28283 121.695 2.74841 121.847C1.14516 122.305 -0.305408 121.084 0.152665 119.404C1.45054 114.06 2.74841 108.716 4.04628 103.372C4.35166 102.074 5.34415 101.463 6.48934 101.768C7.63452 101.997 8.24528 103.066 7.9399 104.364C7.02375 108.258 6.10761 112.075 5.11512 115.892C5.11512 116.045 5.03877 116.198 4.96243 116.656Z" fill="#FFCA36"/>
<path d="M108.563 100.012C104.975 96.0425 100.7 93.3704 95.661 91.9962C94.9739 91.8435 94.2867 91.6908 93.5996 91.5381C92.1491 91.2328 91.3093 90.2403 91.6147 89.0951C91.8437 87.8736 92.9125 87.2628 94.3631 87.5682C102.456 89.1714 108.869 93.2941 113.755 99.9361C114.595 101.081 115.587 102.15 116.656 102.99C121.771 107.265 123.374 114.365 120.397 120.32C119.633 121.847 118.565 122.382 117.419 121.847C116.198 121.237 115.969 120.168 116.732 118.564C118.336 115.205 118.183 111.999 116.274 108.716C115.892 110.09 115.74 111.388 115.282 112.533C113.984 116.045 110.625 118.106 106.807 117.801C103.372 117.496 100.471 114.9 99.7073 111.388C98.9438 107.723 100.471 104.899 103.296 102.761C104.67 101.768 106.349 101.158 107.876 100.394C108.029 100.165 108.258 100.089 108.563 100.012ZM112.152 108.181C112.075 108.181 112.075 108.105 111.999 108.105C111.923 107.494 111.923 106.884 111.77 106.349C111.312 104.288 110.319 103.753 108.334 104.364C106.578 104.899 105.204 105.891 104.212 107.418C102.914 109.403 103.525 111.922 105.51 113.144C107.494 114.289 110.09 113.678 111.159 111.617C111.694 110.548 111.846 109.327 112.152 108.181Z" fill="#FFCA36"/>
<path d="M24.354 9.77216C24.2014 10.0012 23.9723 10.612 23.5142 11.07C22.4454 12.2152 21.3766 13.2841 20.2314 14.3529C19.6206 14.8873 19.3916 15.4217 19.6206 16.1852C19.926 17.6357 20.1551 19.1627 20.3841 20.6132C20.5368 21.5294 20.4604 22.3692 19.6206 22.9799C18.7808 23.5907 17.941 23.438 17.0249 22.9799C15.6507 22.2165 14.2765 21.453 12.8259 20.7659C12.4442 20.6132 11.8334 20.6132 11.4517 20.7659C10.0775 21.3767 8.77958 22.1401 7.40536 22.9036C6.48922 23.3616 5.64942 23.667 4.73327 22.9799C3.89347 22.3692 3.81713 21.453 3.96982 20.5369C4.2752 19.01 4.50424 17.4067 4.73327 15.8798C4.80962 15.4217 4.58058 14.811 4.35155 14.5056C3.20637 13.2841 2.06118 12.2152 0.916003 11.07C0.228894 10.3829 -0.152833 9.69582 0.228894 8.70333C0.610621 7.78718 1.29773 7.40545 2.21388 7.32911C3.74078 7.17642 5.26769 6.94738 6.87095 6.642C7.32902 6.56565 7.86344 6.18393 8.09247 5.72586C8.85593 4.35164 9.54304 2.90107 10.2301 1.45051C10.6119 0.610712 11.299 0.0762939 12.2915 0.0762939C13.284 0.0762939 13.8947 0.687057 14.2765 1.52686C14.8872 2.82473 15.5743 4.1226 16.1851 5.49682C16.4905 6.26027 16.9485 6.642 17.8647 6.71835C19.4679 6.87104 20.9949 7.10007 22.5981 7.40545C23.6669 7.55815 24.354 8.3216 24.354 9.77216ZM15.727 17.5594C14.5055 14.6583 15.498 12.5969 17.941 10.7647C14.7345 11.07 13.1313 9.46678 12.2151 6.642C11.4517 9.61947 9.54304 10.9173 6.48922 10.841C9.08496 12.5206 9.69573 14.6583 8.70324 17.4831C11.0699 15.7271 13.3603 15.6508 15.727 17.5594Z" fill="#FFCA36"/>
<path d="M109.785 40.3104C109.708 41.761 109.021 42.2954 108.105 42.7535C104.288 44.5858 100.47 46.4181 96.6532 48.2504C86.652 52.9838 76.727 57.7172 66.7258 62.527C66.4968 62.6033 66.2677 62.756 66.115 62.8323C64.9698 63.2904 63.8247 62.985 63.3666 61.9162C62.8322 60.8474 63.2139 59.7022 64.4354 59.1678C66.5731 58.0989 68.7108 57.1064 70.8485 56.1139C82.682 50.4644 94.5155 44.8148 106.349 39.1653C107.265 38.7072 108.181 38.4018 109.021 39.0889C109.327 39.3943 109.556 40.0051 109.785 40.3104Z" fill="#FFCA36"/>
<path d="M50.7695 26.4156C50.7695 35.348 49.1663 43.1352 46.0361 50.6171C45.12 52.8311 44.2038 54.9688 43.2877 57.1828C42.6769 58.6333 41.6081 59.1678 40.3865 58.7097C39.2414 58.2516 38.936 57.1064 39.4704 55.6559C41.0736 51.4569 42.9823 47.4106 44.2802 43.1352C47.1049 34.1265 47.334 24.8887 45.5017 15.6509C45.4253 15.3455 45.349 15.0401 45.349 14.7347C45.12 13.4368 45.7307 12.4443 46.8759 12.2153C48.0211 11.9863 49.0136 12.6734 49.2426 13.9713C50.3878 18.3229 50.8459 22.751 50.7695 26.4156Z" fill="#FFCA36"/>
<path d="M76.727 66.955C86.7282 67.0313 94.3628 68.3292 101.768 71.0776C102.379 71.3066 103.142 71.7647 103.372 72.2991C103.601 72.9099 103.448 73.826 103.066 74.4368C102.608 75.2766 101.616 75.2766 100.699 74.9712C98.4091 74.2841 96.1951 73.4443 93.9047 72.9099C84.7432 70.6195 75.5055 70.5432 66.2677 72.2991C64.6644 72.6045 62.9848 72.9099 61.3052 73.1389C60.0837 73.2916 59.0912 72.5282 59.0148 71.4593C58.8621 70.3142 59.4729 69.398 60.6181 69.169C66.6494 68.1001 72.6807 66.955 76.727 66.955Z" fill="#FFCA36"/>
<path d="M89.4004 29.393C89.4004 30.9963 89.4004 32.5995 89.4004 34.1264C89.4004 35.7297 88.7133 36.4931 87.1101 36.4931C83.9036 36.4931 80.6971 36.4931 77.4906 36.4931C75.9636 36.4931 75.2002 35.7297 75.2002 34.2028C75.2002 30.9199 75.2002 27.7134 75.2002 24.4306C75.2002 22.98 75.9637 22.2929 77.4142 22.2166C80.6971 22.2166 83.9036 22.2166 87.1864 22.2166C88.637 22.2166 89.4004 22.9037 89.4004 24.4306C89.4768 26.1865 89.4004 27.7898 89.4004 29.393ZM79.3228 26.4919C79.3228 28.5532 79.3228 30.5382 79.3228 32.4468C81.3842 32.4468 83.2928 32.4468 85.2014 32.4468C85.2014 30.3855 85.2014 28.4769 85.2014 26.4919C83.2165 26.4919 81.3078 26.4919 79.3228 26.4919Z" fill="#FFCA36"/>
<path d="M73.4441 40.5394C72.9861 41.3029 72.757 41.9136 72.299 42.2954C65.6569 48.2503 59.0912 54.2816 52.4491 60.1602C51.3803 61.1527 50.2351 61.1527 49.3953 60.2365C48.5555 59.3204 48.7082 58.0989 49.777 57.1064C56.3428 51.1514 62.9085 45.2728 69.4742 39.3942C70.1613 38.7071 71.0011 38.2491 71.9172 38.7835C72.4516 39.2416 72.9097 39.9287 73.4441 40.5394Z" fill="#FFCA36"/>
<path d="M111.77 85.3543C108.41 85.3543 105.738 82.6822 105.738 79.323C105.738 75.8874 108.487 73.2153 111.846 73.2153C115.129 73.2153 117.877 75.9638 117.877 79.323C117.877 82.6058 115.129 85.3543 111.77 85.3543ZM111.846 81.2316C112.991 81.2316 113.907 80.2391 113.831 79.1703C113.755 78.1014 112.838 77.1853 111.846 77.1853C110.701 77.1853 109.861 78.1014 109.861 79.2466C109.785 80.3918 110.701 81.3079 111.846 81.2316Z" fill="#FFCA36"/>
<path d="M69.0925 22.3692C69.0925 25.7284 66.4204 28.4004 63.0612 28.4004C59.6257 28.4004 56.9536 25.7284 56.9536 22.2928C56.9536 18.9336 59.702 16.2615 62.9849 16.1852C66.3441 16.1852 69.0925 19.01 69.0925 22.3692ZM60.9999 22.2928C60.9999 23.438 61.8397 24.3541 62.9849 24.3541C64.0537 24.3541 64.9699 23.5907 65.0462 22.4455C65.1226 21.3003 64.2064 20.3842 63.1376 20.3078C61.9924 20.3078 60.9999 21.224 60.9999 22.2928Z" fill="#FFCA36"/>
<path d="M44.6618 8.09262C42.3715 8.09262 40.6155 6.26033 40.6919 3.96996C40.6919 1.75594 42.5241 0 44.7382 0C46.9522 0 48.8608 1.83229 48.8608 4.04631C48.7845 6.33667 46.9522 8.09262 44.6618 8.09262Z" fill="#FFCA36"/>
<path d="M111.769 31.5306C111.769 31.836 111.769 32.065 111.769 32.3704C111.693 33.6683 110.93 34.5844 109.784 34.5844C108.639 34.5844 107.799 33.7446 107.723 32.4468C107.723 31.9123 107.723 31.3016 107.723 30.7672C107.799 29.3929 108.639 28.4768 109.784 28.5531C110.93 28.5531 111.693 29.4693 111.769 30.7672C111.769 30.9962 111.769 31.2252 111.769 31.5306Z" fill="#FFCA36"/>
<path d="M106.731 10.2303C106.197 10.154 105.586 10.154 105.128 10.0013C104.135 9.69591 103.601 8.93245 103.677 7.93996C103.753 6.94747 104.364 6.26036 105.433 6.10767C106.197 6.03133 106.96 6.03133 107.723 6.10767C108.945 6.18402 109.785 7.02382 109.785 8.09266C109.785 9.16149 109.021 10.0013 107.876 10.154C107.494 10.2303 107.189 10.154 106.807 10.154C106.731 10.154 106.731 10.2303 106.731 10.2303Z" fill="#FFCA36"/>
<path d="M118.946 33.0575C118.946 34.7371 116.808 36.9512 115.587 36.8748C114.976 36.7985 114.136 36.4167 113.831 35.8823C113.525 35.3479 113.449 34.4318 113.754 33.8974C114.289 33.0576 115.052 32.2941 115.892 31.7597C116.35 31.4543 117.343 31.4543 117.877 31.7597C118.412 32.0651 118.717 32.8285 118.946 33.0575Z" fill="#FFCA36"/>
<path d="M111.77 49.7772C111.77 50.1589 111.77 50.4643 111.77 50.846C111.693 51.9912 110.853 52.831 109.785 52.831C108.716 52.831 107.8 52.0676 107.723 50.9224C107.647 50.2353 107.647 49.5482 107.723 48.9374C107.8 47.6395 108.639 46.7234 109.785 46.7234C110.93 46.7234 111.77 47.6395 111.77 48.9374C111.77 49.2428 111.77 49.4718 111.77 49.7772Z" fill="#FFCA36"/>
<path d="M103.601 3.05377C103.601 3.43549 103.601 3.74087 103.601 4.1226C103.524 5.26778 102.685 6.10758 101.616 6.10758C100.547 6.10758 99.6307 5.34413 99.5543 4.19895C99.478 3.51184 99.478 2.82473 99.5543 2.21397C99.6307 0.916094 100.47 0.0762939 101.616 0.0762939C102.761 0.0762939 103.601 0.992439 103.601 2.29031C103.677 2.51935 103.677 2.74838 103.601 3.05377Z" fill="#FFCA36"/>
<path d="M103.601 13.2077C103.601 13.5895 103.601 13.8949 103.601 14.2766C103.524 15.4218 102.685 16.1852 101.616 16.1852C100.547 16.1852 99.707 15.4218 99.5543 14.2766C99.478 13.5895 99.478 12.826 99.5543 12.1389C99.6307 10.9174 100.47 10.1539 101.616 10.1539C102.761 10.1539 103.524 10.9937 103.601 12.2153C103.677 12.597 103.677 12.9024 103.601 13.2077Z" fill="#FFCA36"/>
<path d="M96.6535 6.10767C96.8825 6.10767 97.1115 6.10767 97.3406 6.10767C98.7148 6.18401 99.5546 6.87112 99.5546 8.09265C99.5546 9.23783 98.7911 10.0776 97.4169 10.154C96.7298 10.2303 96.0427 10.2303 95.4319 10.154C94.2104 10.0013 93.447 9.16148 93.5233 8.0163C93.5997 6.94747 94.3631 6.18401 95.5846 6.10767C95.89 6.10767 96.2717 6.10767 96.6535 6.10767Z" fill="#FFCA36"/>
<path d="M104.364 36.8749C102.761 36.8749 100.471 34.6608 100.623 33.4393C100.7 32.8285 101.158 31.9887 101.616 31.7597C102.15 31.4543 103.143 31.5307 103.677 31.8361C104.441 32.2941 105.128 32.9812 105.586 33.7447C105.891 34.2791 105.891 35.2716 105.662 35.806C105.433 36.4168 104.67 36.7222 104.364 36.8749Z" fill="#FFCA36"/>
<path d="M118.946 48.1739C118.717 48.4793 118.488 49.2428 117.954 49.4718C117.343 49.7772 116.427 49.7772 115.893 49.4718C115.129 49.0138 114.366 48.2503 113.908 47.4868C113.602 46.9524 113.602 46.0363 113.831 45.5019C114.137 44.9674 114.9 44.5094 115.511 44.433C116.732 44.2803 118.87 46.4944 118.946 48.1739Z" fill="#FFCA36"/>
</g>
<defs>
<clipPath id="clip0_21_1044">
<rect width="122" height="122" fill="white"/>
</clipPath>
</defs>
</svg>
