<svg width="135" height="143" viewBox="0 0 135 143" fill="none" xmlns="http://www.w3.org/2000/svg">
<g clip-path="url(#clip0_19_65)">
<path d="M134.382 52.9125C134.382 35.3163 120.178 20.942 102.516 20.942C100.416 20.942 98.44 21.1898 96.5874 21.5616C92.0174 9.29381 80.4071 0.619629 66.6971 0.619629C53.1107 0.619629 41.5004 9.16989 36.9305 21.3137C35.4483 21.0659 33.9661 20.942 32.484 20.942C14.8216 20.942 0.617554 35.3163 0.617554 52.9125C0.617554 69.3935 13.0924 83.0243 29.1491 84.6352V113.508V122.802V142.38H105.727V113.508V84.6352C121.784 83.0243 134.382 69.3935 134.382 52.9125Z" stroke="#FFD95D" stroke-miterlimit="10"/>
<path d="M58.4218 102.479H52.2461V123.545H58.4218V102.479Z" fill="#FFD95D"/>
<path d="M70.5261 102.479H64.3504V123.545H70.5261V102.479Z" fill="#FFD95D"/>
<path d="M82.6304 102.479H76.4547V123.545H82.6304V102.479Z" fill="#FFD95D"/>
<path d="M101.157 33.9533C96.5873 29.3683 87.9414 30.6075 81.8892 36.6794C76.5782 42.0079 74.9725 49.319 77.8133 54.1517L45.3293 84.0157C43.7236 85.6266 43.7236 88.1049 45.3293 89.7158L45.4528 89.8397C47.0585 91.4507 49.5288 91.4507 51.1344 89.8397L80.7776 57.3735C85.5946 60.4715 93.0054 58.8605 98.44 53.4082C104.492 47.2124 105.727 38.5382 101.157 33.9533Z" stroke="#FFD95D" stroke-miterlimit="10"/>
<path d="M67.1912 63.8172L56.569 54.0277C59.6569 49.195 58.0512 41.76 52.6166 36.3076C49.8993 33.5815 46.688 31.8466 43.6002 31.1031C42.9826 30.9792 42.612 31.7227 43.1061 32.0945L50.7639 39.7773C51.3815 40.3969 51.3815 41.2643 50.8874 41.8839C50.2699 42.6274 49.2818 42.6274 48.6642 42.0078L38.5361 31.8466C38.0421 31.351 37.301 31.227 36.6834 31.4749C35.4483 31.9705 35.0777 33.4575 36.0658 34.4489C38.9066 37.299 44.3412 42.7513 46.0704 44.4861C46.688 45.1057 46.688 45.9731 46.1939 46.5927C45.5764 47.3362 44.5883 47.3362 43.9707 46.7166L33.9661 36.6794C32.978 35.688 31.3723 36.0598 31.0018 37.4229C30.8783 38.0425 31.0018 38.662 31.3723 39.1577L41.3769 49.195C41.9945 49.8146 41.9945 50.682 41.5004 51.3016C40.8829 52.0451 39.8948 52.0451 39.2772 51.4255L31.8664 43.9905C31.4959 43.6187 30.7548 43.9905 30.8783 44.4861C31.6194 47.4601 33.3486 50.4341 35.8188 52.9125C41.1299 58.2409 48.4172 59.8518 53.2342 57.0017L62.8682 67.5347" stroke="#FFD95D" stroke-miterlimit="10"/>
<path d="M67.1912 72.1196L83.2479 89.7158C84.8536 91.3267 87.3238 91.3267 88.9295 89.7158L89.053 89.5918C90.6587 87.9809 90.6587 85.5026 89.053 83.8917L71.2671 67.6586" stroke="#FFD95D" stroke-miterlimit="10"/>
<path d="M105.727 132.219H29.1491V142.504H105.727V132.219Z" fill="#FFD95D"/>
</g>
<defs>
<clipPath id="clip0_19_65">
<rect width="135" height="143" fill="white"/>
</clipPath>
</defs>
</svg>
