<svg width="144" height="125" viewBox="0 0 144 125" fill="none" xmlns="http://www.w3.org/2000/svg">
<g clip-path="url(#clip0_19_78)">
<path d="M26.6987 31.4355C26.6987 27.1039 25.4627 23.1435 23.6086 20.0494C23.2378 19.5544 22.3725 19.6781 22.3725 20.4207V32.9207C22.3725 33.787 21.7545 34.6534 20.8893 34.6534C19.9004 34.7771 19.0352 33.9108 19.0352 32.9207V16.5841C19.0352 15.8415 18.5408 15.0989 17.9227 14.7276C16.5631 14.1088 15.0798 15.0989 15.0798 16.5841C15.0798 21.1633 15.0798 29.9504 15.0798 32.7969C15.0798 33.6633 14.4618 34.5296 13.5966 34.5296C12.6077 34.6534 11.7425 33.787 11.7425 32.7969V16.7078C11.7425 15.0989 10.1356 14.1088 8.77597 14.8514C7.78712 15.3464 7.41631 15.9652 7.41631 16.7078V32.7969C7.41631 33.6633 6.79828 34.5296 5.93305 34.5296C4.94421 34.6534 4.07897 33.787 4.07897 32.7969V20.9157C4.07897 20.2969 3.21373 20.0494 2.84292 20.5445C0.988841 23.6385 0 27.4752 0 31.4355C0 39.9752 4.57339 47.1534 10.7536 48.7623L8.52876 99.0098C8.52876 101.485 10.63 103.589 13.1021 103.589H13.3494C15.8215 103.589 17.9227 101.485 17.9227 99.0098L15.6979 48.886C21.8781 47.5247 26.6987 40.2227 26.6987 31.4355Z" fill="#FFD95D"/>
<path d="M142.393 61.3861C142.64 60.891 142.764 60.396 142.764 59.7771V16.5841C142.764 15.4702 141.899 14.6039 140.786 14.6039H138.561C132.999 14.6039 128.549 19.1831 128.549 24.6286V53.589C128.549 58.292 131.887 62.3762 136.337 63.3663L134.73 98.1435C134.73 100.619 136.831 102.723 139.303 102.723H139.55C142.022 102.723 144.124 100.619 144.124 98.1435L142.393 61.3861Z" fill="#FFD95D"/>
<path d="M113.84 103.96V124.381H37.2051V103.96" stroke="#FFD95D" stroke-miterlimit="10"/>
<path d="M37.2051 23.1435V0.618774H113.84V23.1435" stroke="#FFD95D" stroke-miterlimit="10"/>
<path d="M75.5227 111.139C102.351 111.139 124.1 89.3623 124.1 62.4999C124.1 35.6376 102.351 13.8613 75.5227 13.8613C48.6945 13.8613 26.9459 35.6376 26.9459 62.4999C26.9459 89.3623 48.6945 111.139 75.5227 111.139Z" stroke="#FFD95D" stroke-miterlimit="10"/>
<path d="M75.5227 40.9653C87.3888 40.9653 97.03 50.6188 97.03 62.5C97.03 74.3812 87.3888 84.0346 75.5227 84.0346C63.6566 84.0346 54.0154 74.3812 54.0154 62.5" stroke="#FFD95D" stroke-miterlimit="10"/>
</g>
<defs>
<clipPath id="clip0_19_78">
<rect width="144" height="125" fill="white"/>
</clipPath>
</defs>
</svg>
