<svg width="158" height="137" viewBox="0 0 158 137" fill="none" xmlns="http://www.w3.org/2000/svg">
<g clip-path="url(#clip0_19_34)">
<path d="M151.961 137H6.039C2.71139 137 0 134.268 0 130.914C0 127.56 2.71139 124.828 6.039 124.828H151.961C155.289 124.828 158 127.56 158 130.914C158 134.268 155.289 137 151.961 137Z" fill="#FFD95D"/>
<path d="M78.9999 48.5649C43.3822 48.5649 14.5428 77.6293 14.5428 113.525H143.334C143.334 77.6293 114.494 48.5649 78.9999 48.5649Z" stroke="#FFD95D" stroke-miterlimit="10"/>
<path d="M79 113.401V124.952" stroke="#FFD95D" stroke-miterlimit="10"/>
<path d="M72.8378 113.401V124.952" stroke="#FFD95D" stroke-miterlimit="10"/>
<path d="M84.9158 113.401V124.952" stroke="#FFD95D" stroke-miterlimit="10"/>
<path d="M79 48.4407C84.3773 48.4407 88.7364 44.0476 88.7364 38.6284C88.7364 33.2092 84.3773 28.816 79 28.816C73.6228 28.816 69.2637 33.2092 69.2637 38.6284C69.2637 44.0476 73.6228 48.4407 79 48.4407Z" stroke="#FFD95D" stroke-miterlimit="10"/>
<path d="M79 42.603C81.1781 42.603 82.9438 40.8235 82.9438 38.6284C82.9438 36.4333 81.1781 34.6538 79 34.6538C76.8219 34.6538 75.0562 36.4333 75.0562 38.6284C75.0562 40.8235 76.8219 42.603 79 42.603Z" stroke="#FFD95D" stroke-miterlimit="10"/>
<path d="M59.404 82.9702L64.0874 74.3999L68.6474 82.9702L77.1513 87.5658L68.6474 92.2857L64.0874 100.856L59.404 92.2857L50.9001 87.5658L59.404 82.9702Z" stroke="#FFD95D" stroke-miterlimit="10"/>
<path d="M90.0921 71.5431L92.9267 66.3264L95.7613 71.5431L100.814 74.3999L95.7613 77.2566L92.9267 82.3491L90.0921 77.2566L84.9158 74.3999L90.0921 71.5431Z" stroke="#FFD95D" stroke-miterlimit="10"/>
<path d="M79 20.7426C77.3979 20.7426 76.1654 19.5005 76.1654 17.8858V2.98102C76.1654 1.36633 77.3979 0.124268 79 0.124268C80.6022 0.124268 81.8347 1.36633 81.8347 2.98102V17.8858C81.8347 19.3763 80.6022 20.7426 79 20.7426Z" fill="#FFD95D"/>
<path d="M103.895 27.9465C102.417 27.3255 101.8 25.5866 102.417 24.0961L108.332 10.4334C108.949 8.94292 110.674 8.32189 112.153 8.94292C113.632 9.56396 114.248 11.3028 113.632 12.7933L107.716 26.4561C106.977 27.9465 105.251 28.5676 103.895 27.9465Z" fill="#FFD95D"/>
<path d="M54.1045 27.9465C55.5835 27.3255 56.1997 25.5866 55.5835 24.0961L49.6677 10.4334C49.0515 8.94292 47.3261 8.32189 45.8471 8.94292C44.3682 9.56396 43.752 11.3028 44.3682 12.7933L50.284 26.4561C50.9002 27.9465 52.6256 28.5676 54.1045 27.9465Z" fill="#FFD95D"/>
</g>
<defs>
<clipPath id="clip0_19_34">
<rect width="158" height="137" fill="white"/>
</clipPath>
</defs>
</svg>
