<svg width="164" height="162" viewBox="0 0 164 162" fill="none" xmlns="http://www.w3.org/2000/svg">
<g clip-path="url(#clip0_19_12)">
<path d="M129.647 74.0826H34.3534C32.2623 74.0826 30.4699 72.2975 30.4699 70.2148C30.4699 68.1322 32.2623 66.347 34.3534 66.347H129.647C131.738 66.347 133.53 68.1322 133.53 70.2148C133.53 72.2975 131.887 74.0826 129.647 74.0826Z" stroke="#FFD95D" stroke-miterlimit="10"/>
<path d="M82 24.3966C58.6994 24.3966 39.8798 43.1404 39.8798 66.347H123.971C124.12 43.1404 105.151 24.3966 82 24.3966Z" stroke="#FFD95D" stroke-miterlimit="10"/>
<path d="M82 24.3967C85.5471 24.3967 88.4226 21.5328 88.4226 18C88.4226 14.4672 85.5471 11.6033 82 11.6033C78.4529 11.6033 75.5774 14.4672 75.5774 18C75.5774 21.5328 78.4529 24.3967 82 24.3967Z" stroke="#FFD95D" stroke-miterlimit="10"/>
<path d="M82 20.5289C83.4023 20.5289 84.5392 19.3967 84.5392 18C84.5392 16.6033 83.4023 15.4711 82 15.4711C80.5977 15.4711 79.4608 16.6033 79.4608 18C79.4608 19.3967 80.5977 20.5289 82 20.5289Z" stroke="#FFD95D" stroke-miterlimit="10"/>
<path d="M65.7195 36.8926C65.7195 36.8926 51.9781 43.5868 49.2896 58.9091H103.807" stroke="#FFD95D" stroke-miterlimit="10"/>
<path d="M0 80.0331V126V142.364C16.4299 142.364 16.4299 152.182 32.8597 152.182C33.3078 152.182 33.9053 152.182 34.3534 152.182V110.678C34.3534 108.446 36.1457 106.661 38.3862 106.661C40.6266 106.661 42.4189 108.446 42.4189 110.678V150.843C49.8871 148.314 53.0237 143.107 63.6284 142.512V110.678C63.6284 108.446 65.4208 106.661 67.6612 106.661C69.9016 106.661 71.694 108.446 71.694 110.678V142.959C80.9545 144.595 83.643 150.099 92.9035 151.736V110.678C92.9035 108.446 94.6958 106.661 96.9362 106.661C99.1767 106.661 100.969 108.446 100.969 110.678V152.182C111.574 151.587 114.71 146.38 122.179 143.851V110.678C122.179 108.446 123.971 106.661 126.211 106.661C128.452 106.661 130.244 108.446 130.244 110.678V142.512C130.692 142.512 131.14 142.512 131.738 142.512C148.168 142.512 148.168 152.331 164.597 152.331V141.917V126V80.0331H0Z" fill="#FFD95D"/>
<path d="M20.3133 137.008H4.92896V162H20.3133V137.008Z" fill="#FFD95D"/>
<path d="M158.474 137.008H143.089V162H158.474V137.008Z" fill="#FFD95D"/>
<path d="M19.8652 23.5042H5.9745V83.0083H19.8652V23.5042Z" stroke="#FFD95D" stroke-miterlimit="10"/>
<path d="M12.8452 20.5289C12.8452 20.5289 4.48088 15.4711 12.8452 1.33887C12.8452 1.33887 21.6576 12.3471 12.8452 20.5289Z" stroke="#FFD95D" stroke-miterlimit="10"/>
<path d="M158.026 23.5042H144.135V83.0083H158.026V23.5042Z" stroke="#FFD95D" stroke-miterlimit="10"/>
<path d="M151.005 20.5289C151.005 20.5289 142.641 15.4711 151.005 1.33887C151.005 1.33887 159.818 12.3471 151.005 20.5289Z" stroke="#FFD95D" stroke-miterlimit="10"/>
</g>
<defs>
<clipPath id="clip0_19_12">
<rect width="164" height="162" fill="white"/>
</clipPath>
</defs>
</svg>
